<?xml version="1.0" standalone="no"?>
<!DOCTYPE svg PUBLIC "-//W3C//DTD SVG 20010904//EN"
 "http://www.w3.org/TR/2001/REC-SVG-20010904/DTD/svg10.dtd">
<svg version="1.0" xmlns="http://www.w3.org/2000/svg"
 width="123.000000pt" height="125.000000pt" viewBox="0 0 123.000000 125.000000"
 preserveAspectRatio="xMidYMid meet">
<g transform="translate(0.000000,125.000000) scale(0.100000,-0.100000)"
fill="#ffffff" stroke="none">
<path d="M596 1123 c-4 -4 -6 -95 -6 -203 l1 -195 -44 -47 -44 -48 -199 -2
c-271 -4 -266 -22 6 -26 l206 -2 18 -31 c10 -17 27 -34 38 -38 18 -6 19 -18
21 -211 2 -186 4 -205 20 -208 16 -3 17 11 17 197 l0 200 45 46 46 45 199 0
c171 0 200 2 200 15 0 13 -29 15 -205 15 l-204 0 -16 30 c-8 16 -27 37 -40 46
l-25 16 0 204 c0 163 -3 204 -13 204 -8 0 -17 -3 -21 -7z"/>
<path d="M443 990 c-88 -41 -154 -106 -197 -194 -39 -78 -43 -96 -23 -96 7 0
25 28 40 63 15 35 41 79 57 99 34 42 118 99 173 119 20 7 37 19 37 26 0 20
-19 16 -87 -17z"/>
<path d="M700 1005 c0 -8 12 -18 28 -21 15 -4 55 -25 90 -47 71 -45 132 -122
152 -192 15 -54 46 -66 35 -12 -22 98 -110 203 -216 256 -69 34 -89 38 -89 16z"/>
<path d="M215 519 c-12 -18 56 -141 107 -192 47 -46 154 -107 191 -107 32 0
13 22 -36 40 -98 37 -171 109 -217 212 -22 51 -35 64 -45 47z"/>
<path d="M961 465 c-34 -81 -99 -148 -187 -191 -78 -39 -96 -60 -41 -49 87 19
196 109 239 197 36 73 43 98 26 98 -8 0 -25 -25 -37 -55z"/>
</g>
</svg>
