<?xml version="1.0" standalone="no"?>
<!DOCTYPE svg PUBLIC "-//W3C//DTD SVG 20010904//EN"
 "http://www.w3.org/TR/2001/REC-SVG-20010904/DTD/svg10.dtd">
<svg version="1.0" xmlns="http://www.w3.org/2000/svg"
 width="127.000000pt" height="128.000000pt" viewBox="0 0 127.000000 128.000000"
 preserveAspectRatio="xMidYMid meet">
<g transform="translate(0.000000,128.000000) scale(0.100000,-0.100000)"
fill="#ffffff" stroke="none">
<path d="M274 1134 c-59 -39 -143 -134 -156 -177 -19 -63 1 -105 96 -203 l84
-87 151 152 c83 83 151 155 151 159 0 10 -138 144 -170 166 -38 25 -110 21
-156 -10z"/>
<path d="M853 1147 c-12 -7 -179 -169 -372 -360 -385 -382 -387 -385 -362
-469 18 -59 140 -182 198 -199 88 -25 92 -23 466 355 186 187 347 355 358 371
43 68 13 153 -87 245 -71 65 -147 87 -201 57z m-118 -272 c0 -31 -49 -28 -53
3 -3 20 0 23 25 20 20 -2 28 -8 28 -23z m-7 -79 c10 -14 27 -45 36 -70 25 -65
66 -74 87 -19 11 31 33 25 37 -10 5 -38 -29 -67 -76 -67 -44 0 -62 15 -86 75
-28 67 -70 98 -78 58 -3 -16 -6 -15 -26 5 -32 32 -14 52 43 52 34 0 48 -5 63
-24z m-150 -68 c7 -7 12 -20 12 -30 0 -10 17 -37 39 -61 50 -55 61 -77 61
-125 0 -45 -14 -61 -62 -69 -44 -7 -83 25 -102 82 -18 51 -58 84 -81 65 -8 -7
-15 -21 -15 -31 0 -26 -27 -24 -35 2 -5 14 0 30 13 48 16 21 27 26 63 25 36
-1 47 -6 71 -35 15 -18 28 -40 28 -49 0 -25 29 -60 51 -60 35 0 28 38 -19 111
-66 101 -63 98 -57 67 6 -32 -2 -36 -21 -10 -26 34 -11 82 26 82 9 0 21 -5 28
-12z m87 -23 c26 -25 33 -59 15 -70 -11 -7 -80 64 -80 83 0 21 40 13 65 -13z
m77 -82 c32 -31 36 -68 9 -83 -20 -10 -51 -4 -51 11 0 4 7 6 15 3 19 -8 19 4
0 36 -15 27 -20 60 -8 60 4 0 20 -12 35 -27z m-192 -188 c7 -8 23 -15 36 -15
26 0 27 -1 18 -24 -12 -32 -59 -10 -88 42 -10 17 19 15 34 -3z"/>
<path d="M829 455 c-79 -80 -145 -151 -147 -158 -1 -7 35 -49 81 -94 93 -91
127 -105 200 -83 48 14 150 107 178 162 23 46 25 115 3 148 -20 29 -156 170
-164 170 -4 0 -71 -65 -151 -145z"/>
</g>
</svg>
