<?xml version="1.0" standalone="no"?>
<!DOCTYPE svg PUBLIC "-//W3C//DTD SVG 20010904//EN"
 "http://www.w3.org/TR/2001/REC-SVG-20010904/DTD/svg10.dtd">
<svg version="1.0" xmlns="http://www.w3.org/2000/svg"
 width="125.000000pt" height="126.000000pt" viewBox="0 0 125.000000 126.000000"
 preserveAspectRatio="xMidYMid meet">
<g transform="translate(0.000000,126.000000) scale(0.100000,-0.100000)"
fill="#ffffff" stroke="none">
<path d="M335 1155 c-5 -2 -23 -6 -39 -10 -38 -8 -154 -119 -177 -170 -10 -22
-19 -54 -19 -71 0 -40 43 -105 119 -179 l61 -60 150 150 c83 82 150 155 150
161 0 13 -124 134 -160 156 -27 17 -69 28 -85 23z"/>
<path d="M852 1149 c-23 -7 -130 -107 -381 -357 -375 -373 -383 -382 -367
-466 14 -75 148 -203 225 -213 25 -3 50 1 72 12 47 23 695 670 721 719 30 59
21 112 -31 180 -47 60 -130 122 -176 129 -16 3 -45 1 -63 -4z m-252 -424 c16
-15 20 -14 51 4 58 35 118 20 139 -35 18 -47 0 -86 -80 -166 -41 -43 -81 -78
-88 -78 -17 0 -108 85 -144 134 -27 38 -38 97 -20 122 31 44 103 54 142 19z"/>
<path d="M807 452 c-81 -81 -147 -152 -147 -157 0 -16 142 -151 177 -169 67
-34 135 -12 220 71 82 80 105 163 64 230 -21 34 -149 173 -160 173 -3 0 -73
-66 -154 -148z"/>
</g>
</svg>
