<?xml version="1.0" standalone="no"?>
<!DOCTYPE svg PUBLIC "-//W3C//DTD SVG 20010904//EN"
 "http://www.w3.org/TR/2001/REC-SVG-20010904/DTD/svg10.dtd">
<svg version="1.0" xmlns="http://www.w3.org/2000/svg"
 width="107.000000pt" height="137.000000pt" viewBox="0 0 107.000000 137.000000"
 preserveAspectRatio="xMidYMid meet">
<g transform="translate(0.000000,137.000000) scale(0.100000,-0.100000)"
fill="#ffffff" stroke="none">
<path d="M500 1250 c-14 -4 -58 -18 -99 -31 -133 -41 -206 -136 -231 -298 -7
-40 -10 -75 -7 -77 2 -2 41 14 86 36 101 50 182 70 286 70 121 0 207 -25 368
-108 27 -14 -12 167 -54 249 -19 38 -71 85 -125 112 -24 12 -193 60 -198 56 0
-1 -12 -5 -26 -9z"/>
<path d="M424 920 c-54 -11 -193 -66 -223 -89 -22 -17 -22 -19 -8 -48 33 -64
38 -64 182 -13 82 30 96 32 180 27 65 -3 110 -12 160 -32 105 -40 119 -41 150
-11 41 41 31 65 -45 104 -129 65 -270 87 -396 62z"/>
<path d="M134 729 c-38 -42 -13 -178 41 -229 18 -17 25 -34 25 -60 0 -58 54
-152 133 -234 84 -86 121 -101 233 -94 85 6 120 26 205 123 72 81 84 103 99
184 8 47 19 71 39 92 49 49 68 182 32 218 -20 20 -52 19 -70 -3 -5 -6 -11 -40
-13 -76 -4 -52 -12 -77 -41 -125 -20 -33 -48 -72 -62 -88 l-26 -27 -40 32
c-39 31 -45 33 -136 35 -105 2 -135 -6 -175 -44 l-27 -26 -36 39 c-55 60 -105
167 -105 225 0 72 -37 101 -76 58z m50 -112 c8 -98 -2 -108 -28 -30 -19 55
-20 87 -5 115 17 32 26 10 33 -85z m744 23 c-2 -49 -9 -75 -21 -87 -16 -16
-17 -15 -17 23 0 77 12 134 27 134 12 0 15 -13 11 -70z m-280 -236 c30 -20 30
-68 0 -88 -30 -22 -55 -20 -68 4 -7 13 -21 20 -39 20 -15 0 -36 -9 -46 -20
-24 -26 -41 -25 -70 5 -30 29 -31 49 -5 75 17 17 33 20 113 20 68 0 99 -4 115
-16z"/>
</g>
</svg>
