<?xml version="1.0" standalone="no"?>
<!DOCTYPE svg PUBLIC "-//W3C//DTD SVG 20010904//EN"
 "http://www.w3.org/TR/2001/REC-SVG-20010904/DTD/svg10.dtd">
<svg version="1.0" xmlns="http://www.w3.org/2000/svg"
 width="136.000000pt" height="126.000000pt" viewBox="0 0 136.000000 126.000000"
 preserveAspectRatio="xMidYMid meet">
<g transform="translate(0.000000,126.000000) scale(0.100000,-0.100000)"
fill="#ffffff" stroke="none">
<path d="M554 1130 c-144 -38 -186 -71 -200 -160 -7 -42 -6 -43 17 -36 13 3
65 13 114 22 107 19 361 14 463 -9 l63 -15 -6 42 c-15 90 -48 117 -186 156
-90 25 -172 25 -265 0z"/>
<path d="M485 935 c-110 -17 -151 -36 -158 -71 -3 -16 -4 -30 -2 -32 1 -2 43
5 91 15 156 31 466 24 597 -13 13 -4 17 1 17 18 0 44 -21 58 -120 78 -111 23
-299 25 -425 5z"/>
<path d="M465 835 c-49 -8 -109 -21 -132 -29 -44 -15 -193 -107 -214 -132 -14
-18 -31 -19 170 16 157 28 275 26 392 -4 183 -48 211 -50 366 -27 77 12 156
21 174 21 42 0 36 5 -82 73 -70 40 -116 59 -175 71 -112 24 -382 30 -499 11z"/>
<path d="M335 670 c-3 -5 -1 -46 5 -92 5 -45 10 -92 10 -103 -1 -18 -2 -17
-14 5 -25 46 -40 137 -28 165 11 24 10 25 -21 24 -17 0 -63 -6 -102 -13 l-70
-13 48 -21 c27 -12 59 -22 72 -22 29 0 41 -15 49 -63 5 -24 22 -55 45 -80 21
-24 49 -74 66 -117 23 -60 40 -85 89 -133 78 -76 126 -101 196 -101 69 -1 123
29 198 108 29 31 55 56 58 56 2 0 4 -13 4 -29 0 -30 20 -95 27 -88 2 3 -1 35
-8 71 -10 61 -9 72 11 129 13 34 38 78 56 97 22 23 37 53 45 88 11 44 17 54
38 58 43 10 141 56 141 66 0 10 -55 4 -143 -16 l-52 -11 -6 -60 c-5 -58 -25
-105 -42 -105 -5 0 -7 6 -4 13 3 8 8 44 12 80 6 56 5 67 -8 67 -11 0 -17 -16
-22 -62 -8 -80 -39 -198 -66 -250 -49 -96 -164 -181 -245 -181 -61 0 -144 53
-200 126 -60 80 -99 214 -106 359 -3 54 -17 75 -33 48z"/>
<path d="M403 212 c-1 -44 2 -60 7 -47 11 25 12 102 3 108 -5 3 -9 -25 -10
-61z"/>
</g>
</svg>
