<?xml version="1.0" standalone="no"?>
<!DOCTYPE svg PUBLIC "-//W3C//DTD SVG 20010904//EN"
 "http://www.w3.org/TR/2001/REC-SVG-20010904/DTD/svg10.dtd">
<svg version="1.0" xmlns="http://www.w3.org/2000/svg"
 width="107.000000pt" height="137.000000pt" viewBox="0 0 107.000000 137.000000"
 preserveAspectRatio="xMidYMid meet">
<g transform="translate(0.000000,137.000000) scale(0.100000,-0.100000)"
fill="#ffffff" stroke="none">
<path d="M442 1232 c-82 -30 -135 -74 -159 -131 -9 -20 -18 -76 -21 -125 -5
-85 -4 -89 14 -81 130 54 226 70 329 56 72 -11 163 -37 180 -52 20 -19 25 -7
25 54 0 111 -39 201 -105 244 -28 19 -114 48 -170 58 -11 2 -53 -9 -93 -23z"/>
<path d="M258 1150 c-61 -53 -85 -113 -94 -230 l-7 -93 39 28 c21 16 41 31 44
33 3 2 8 48 11 103 5 88 9 104 37 149 17 27 27 50 23 50 -5 0 -28 -18 -53 -40z"/>
<path d="M764 1168 c43 -59 59 -112 59 -196 l0 -84 38 -24 c21 -13 41 -24 44
-24 18 0 -13 198 -39 248 -16 31 -92 102 -109 102 -5 0 -2 -10 7 -22z"/>
<path d="M425 926 c-65 -15 -191 -64 -230 -90 -26 -17 -30 -32 -16 -55 8 -12
16 -10 50 7 23 12 58 31 79 42 145 76 334 66 498 -25 52 -29 68 -34 80 -25 24
21 16 38 -29 65 -125 72 -314 108 -432 81z"/>
<path d="M325 791 c-74 -10 -130 -33 -144 -59 -15 -29 -14 -116 3 -156 30 -72
222 -111 279 -58 14 13 31 37 37 53 17 40 40 36 73 -11 41 -58 77 -74 151 -66
131 14 184 68 172 174 -9 72 -18 87 -67 106 -33 13 -85 18 -243 21 -111 2
-228 0 -261 -4z m481 -40 c37 -14 54 -47 54 -101 0 -78 -21 -98 -121 -119 -71
-15 -96 -6 -144 53 -23 28 -46 46 -59 46 -12 0 -40 -20 -68 -51 l-47 -51 -70
4 c-85 4 -120 26 -137 85 -23 79 6 129 81 143 72 13 473 6 511 -9z"/>
<path d="M354 750 c-49 -3 -95 -10 -102 -14 -31 -19 -32 -124 -2 -161 15 -19
73 -35 124 -35 34 0 45 6 90 55 31 34 59 55 72 55 14 0 39 -20 69 -55 41 -48
51 -55 83 -55 57 1 113 16 134 38 28 27 27 117 0 144 -32 32 -243 45 -468 28z"/>
<path d="M124 705 c-31 -47 -5 -155 52 -216 13 -14 31 -51 39 -82 19 -74 51
-123 133 -206 95 -95 183 -116 287 -67 99 46 225 214 225 301 0 13 7 30 15 37
37 30 57 54 66 76 10 26 12 132 3 156 -13 33 -19 14 -19 -57 0 -86 -16 -125
-54 -129 -23 -3 -27 -10 -38 -68 -19 -92 -47 -143 -122 -220 -74 -76 -119 -96
-203 -88 -62 6 -114 42 -183 125 -43 53 -61 84 -76 138 -30 103 -36 115 -54
109 -28 -11 -58 78 -52 153 2 35 3 63 1 63 -2 0 -11 -11 -20 -25z"/>
</g>
</svg>
