<?xml version="1.0" standalone="no"?>
<!DOCTYPE svg PUBLIC "-//W3C//DTD SVG 20010904//EN"
 "http://www.w3.org/TR/2001/REC-SVG-20010904/DTD/svg10.dtd">
<svg version="1.0" xmlns="http://www.w3.org/2000/svg"
 width="112.000000pt" height="122.000000pt" viewBox="0 0 112.000000 122.000000"
 preserveAspectRatio="xMidYMid meet">
<g transform="translate(0.000000,122.000000) scale(0.100000,-0.100000)"
fill="#ffffff" stroke="none">
<path d="M488 1107 c-65 -19 -154 -75 -193 -122 -99 -120 -185 -375 -185 -544
0 -79 51 -165 135 -228 89 -67 101 -68 39 -2 -142 150 -143 172 -15 367 93
139 129 172 223 203 68 21 70 21 134 4 85 -23 141 -74 230 -207 124 -186 124
-218 -4 -350 -36 -38 -60 -68 -54 -68 6 0 44 27 85 59 112 89 138 156 118 306
-26 192 -116 413 -200 487 -93 83 -219 121 -313 95z"/>
<path d="M350 581 c0 -24 41 -51 75 -51 62 0 36 28 -52 54 -14 5 -23 3 -23 -3z"/>
<path d="M703 567 c-24 -11 -43 -25 -43 -29 0 -4 17 -8 38 -8 27 0 45 7 60 23
21 23 20 38 -2 36 -6 0 -30 -10 -53 -22z"/>
<path d="M246 512 c-10 -29 11 -89 35 -102 10 -6 19 -21 19 -33 0 -55 23 -100
86 -166 35 -38 80 -76 98 -85 46 -22 118 -20 165 4 71 36 181 183 181 242 0 9
11 34 25 54 25 36 33 88 16 98 -5 3 -11 -11 -15 -32 -3 -23 -16 -47 -31 -60
-17 -15 -25 -32 -25 -55 0 -43 -59 -136 -124 -196 l-48 -43 -68 4 c-59 3 -74
8 -107 34 -54 44 -120 144 -128 196 -4 23 -17 54 -30 68 -13 14 -28 41 -33 60
-8 32 -9 33 -16 12z"/>
</g>
</svg>
