<?xml version="1.0" standalone="no"?>
<!DOCTYPE svg PUBLIC "-//W3C//DTD SVG 20010904//EN"
 "http://www.w3.org/TR/2001/REC-SVG-20010904/DTD/svg10.dtd">
<svg version="1.0" xmlns="http://www.w3.org/2000/svg"
 width="152.000000pt" height="152.000000pt" viewBox="0 0 152.000000 152.000000"
 preserveAspectRatio="xMidYMid meet">
<g transform="translate(0.000000,152.000000) scale(0.100000,-0.100000)"
fill="#ffffff" stroke="none">
<path d="M775 1388 c-26 -15 -42 -35 -60 -76 -13 -29 -12 -37 5 -78 11 -25 20
-48 20 -50 0 -2 -29 -4 -65 -4 -58 0 -65 2 -65 19 0 29 -15 34 -81 26 -48 -6
-59 -10 -59 -25 0 -27 -18 -30 -180 -31 -176 -1 -192 -4 -188 -33 3 -20 9 -21
181 -26 162 -5 180 -7 193 -24 8 -11 14 -32 14 -46 0 -37 16 -52 90 -85 143
-66 238 -128 240 -158 0 -5 -36 -45 -81 -90 -45 -45 -85 -92 -89 -103 -5 -13
0 -93 13 -199 18 -153 19 -178 6 -186 -42 -25 -44 -28 -32 -40 9 -9 28 -10 70
-3 l58 9 12 164 c7 91 15 171 17 178 3 7 47 34 98 59 l93 45 5 -128 5 -128 58
-103 c40 -70 56 -109 52 -122 -8 -25 13 -26 55 -5 48 25 47 47 -6 162 l-47
104 12 92 c6 51 14 106 16 122 2 17 14 57 26 90 54 151 4 372 -101 441 -23 15
-62 29 -92 33 -39 5 -52 11 -49 21 2 8 8 31 14 50 25 89 -79 173 -158 128z
m-65 -309 c46 -5 86 -12 89 -14 4 -5 -23 -81 -37 -103 -7 -9 -31 -4 -105 25
-96 36 -97 37 -97 70 0 31 2 33 33 33 18 0 71 -5 117 -11z"/>
</g>
</svg>
