<?xml version="1.0" standalone="no"?>
<!DOCTYPE svg PUBLIC "-//W3C//DTD SVG 20010904//EN"
 "http://www.w3.org/TR/2001/REC-SVG-20010904/DTD/svg10.dtd">
<svg version="1.0" xmlns="http://www.w3.org/2000/svg"
 width="165.000000pt" height="165.000000pt" viewBox="0 0 165.000000 165.000000"
 preserveAspectRatio="xMidYMid meet">
<g transform="translate(0.000000,165.000000) scale(0.100000,-0.100000)"
fill="#ffffff" stroke="none">
<path d="M1387 1536 c-43 -19 -108 -52 -145 -74 -76 -46 -232 -160 -232 -170
0 -4 51 -59 114 -121 102 -102 117 -113 132 -101 33 28 173 251 205 327 17 43
34 99 37 126 6 59 -3 60 -111 13z"/>
<path d="M925 1220 l-29 -31 122 -122 122 -122 30 30 30 30 -123 123 -123 122
-29 -30z"/>
<path d="M536 838 l-306 -312 127 -128 c70 -71 133 -128 140 -128 13 0 605
620 601 630 -2 3 -60 60 -129 128 l-126 123 -307 -313z"/>
<path d="M141 445 c-17 -20 -31 -42 -31 -49 0 -38 209 -246 247 -246 10 0 36
14 57 31 l38 32 -133 133 c-74 74 -137 134 -140 134 -4 0 -21 -16 -38 -35z"/>
</g>
</svg>
