<?xml version="1.0" standalone="no"?>
<!DOCTYPE svg PUBLIC "-//W3C//DTD SVG 20010904//EN"
 "http://www.w3.org/TR/2001/REC-SVG-20010904/DTD/svg10.dtd">
<svg version="1.0" xmlns="http://www.w3.org/2000/svg"
 width="128.000000pt" height="117.000000pt" viewBox="0 0 128.000000 117.000000"
 preserveAspectRatio="xMidYMid meet">
<g transform="translate(0.000000,117.000000) scale(0.100000,-0.100000)"
fill="#ffffff" stroke="none">
<path d="M470 1030 c-15 -15 -20 -33 -20 -79 l0 -59 -141 -4 -141 -3 -29 -33
-29 -32 0 -319 0 -319 28 -30 c23 -24 40 -32 87 -37 50 -7 555 2 563 9 1 2 -5
19 -13 39 -46 109 19 260 130 302 59 23 156 17 213 -13 23 -12 45 -22 48 -22
3 0 4 90 2 200 l-3 200 -28 27 c-27 27 -31 28 -165 33 l-137 5 -3 55 c-2 39
-9 61 -24 78 -20 21 -29 22 -170 22 -135 0 -150 -2 -168 -20z m304 -46 c3 -9
6 -33 6 -55 l0 -39 -140 0 -140 0 0 48 c0 27 3 52 7 55 3 4 64 7 134 7 106 0
128 -3 133 -16z m-216 -279 c20 -9 47 -25 59 -37 l22 -21 35 31 c43 38 81 46
131 30 84 -28 110 -125 56 -209 -34 -53 -203 -219 -222 -219 -8 0 -61 46 -118
101 -132 130 -162 190 -127 257 19 36 48 61 82 72 41 12 40 12 82 -5z"/>
<path d="M943 441 c-127 -32 -185 -202 -107 -313 79 -112 249 -112 328 0 64
91 35 232 -58 287 -47 28 -114 38 -163 26z m95 -113 l3 -48 50 0 50 0 -3 -37
c-3 -38 -4 -38 -50 -41 l-47 -3 -3 -42 c-3 -41 -4 -42 -40 -45 l-38 -3 0 45 0
45 -47 3 c-48 3 -48 3 -51 41 l-3 37 50 0 51 0 0 51 0 50 38 -3 c37 -3 37 -3
40 -50z"/>
</g>
</svg>
