<?xml version="1.0" standalone="no"?>
<!DOCTYPE svg PUBLIC "-//W3C//DTD SVG 20010904//EN"
 "http://www.w3.org/TR/2001/REC-SVG-20010904/DTD/svg10.dtd">
<svg version="1.0" xmlns="http://www.w3.org/2000/svg"
 width="117.000000pt" height="101.000000pt" viewBox="0 0 117.000000 101.000000"
 preserveAspectRatio="xMidYMid meet">
<g transform="translate(0.000000,101.000000) scale(0.050000,-0.050000)"
fill="#ffffff" stroke="none">
<path d="M409 1752 c-173 -75 -193 -153 -185 -694 l6 -411 56 -74 c108 -141
117 -142 764 -149 l579 -6 106 -80 c158 -119 165 -119 166 -5 0 90 6 101 79
151 138 96 143 118 136 642 -9 694 48 654 -939 653 -542 0 -721 -7 -768 -27z
m386 -565 c56 -61 57 -107 4 -174 -80 -102 -259 -48 -259 78 0 156 149 212
255 96z m431 50 c149 -79 109 -277 -56 -277 -162 0 -204 193 -60 276 51 29 63
29 116 1z m546 -39 c45 -50 44 -147 -2 -198 -52 -57 -177 -55 -219 4 -109 156
95 334 221 194z"/>
</g>
</svg>
