<?xml version="1.0" standalone="no"?>
<!DOCTYPE svg PUBLIC "-//W3C//DTD SVG 20010904//EN"
 "http://www.w3.org/TR/2001/REC-SVG-20010904/DTD/svg10.dtd">
<svg version="1.0" xmlns="http://www.w3.org/2000/svg"
 width="138.000000pt" height="138.000000pt" viewBox="0 0 138.000000 138.000000"
 preserveAspectRatio="xMidYMid meet">
<g transform="translate(0.000000,138.000000) scale(0.100000,-0.100000)"
fill="#ffffff" stroke="none">
<path d="M602 1170 c-66 -41 -72 -62 -72 -283 0 -229 7 -255 80 -296 75 -42
160 -17 205 60 17 30 20 56 24 208 4 206 -4 245 -60 296 -34 31 -46 35 -92 35
-34 0 -63 -7 -85 -20z"/>
<path d="M416 775 c-21 -55 9 -164 61 -224 36 -42 119 -91 156 -91 14 0 17 -9
17 -50 l0 -50 -67 0 c-76 0 -97 -9 -91 -36 3 -18 16 -19 191 -22 161 -2 188 0
193 13 13 32 -15 45 -93 45 l-74 0 3 46 c3 46 4 47 46 60 121 35 199 148 190
274 -2 34 -7 46 -22 48 -26 5 -36 -14 -36 -70 0 -61 -11 -88 -56 -138 -72 -80
-203 -89 -287 -19 -50 41 -69 81 -76 159 -5 56 -9 65 -27 68 -13 2 -24 -4 -28
-13z"/>
</g>
</svg>
