<?xml version="1.0" standalone="no"?>
<!DOCTYPE svg PUBLIC "-//W3C//DTD SVG 20010904//EN"
 "http://www.w3.org/TR/2001/REC-SVG-20010904/DTD/svg10.dtd">
<svg version="1.0" xmlns="http://www.w3.org/2000/svg"
 width="145.000000pt" height="105.000000pt" viewBox="0 0 145.000000 105.000000"
 preserveAspectRatio="xMidYMid meet">
<g transform="translate(0.000000,105.000000) scale(0.100000,-0.100000)"
fill="#ffffff" stroke="none">
<path d="M293 920 c-3 -11 -11 -20 -19 -20 -8 0 -22 -28 -34 -67 -24 -79 -52
-113 -91 -113 -58 0 -46 -25 31 -63 85 -42 87 -84 14 -278 -56 -148 -67 -224
-35 -253 18 -16 38 -19 140 -20 73 -1 124 3 131 10 5 5 24 66 40 134 17 68 39
143 50 168 l20 44 52 -8 c72 -11 195 -5 235 11 40 17 51 38 59 111 4 33 12 62
18 66 6 4 80 8 164 8 84 0 173 5 198 11 l44 11 0 55 c0 38 4 55 15 59 18 7 22
104 4 104 -7 0 -22 11 -35 25 -26 29 -42 32 -50 10 -5 -13 -65 -15 -454 -15
-389 0 -449 2 -454 15 -8 22 -37 18 -43 -5z m342 -334 c10 -40 54 -96 76 -96
7 0 3 10 -10 24 -22 24 -44 92 -35 108 3 4 40 8 83 8 92 0 104 -9 99 -71 -5
-65 -37 -84 -141 -84 -45 0 -94 3 -108 7 -49 14 -62 93 -23 133 25 25 48 14
59 -29z"/>
</g>
</svg>
