<?xml version="1.0" standalone="no"?>
<!DOCTYPE svg PUBLIC "-//W3C//DTD SVG 20010904//EN"
 "http://www.w3.org/TR/2001/REC-SVG-20010904/DTD/svg10.dtd">
<svg version="1.0" xmlns="http://www.w3.org/2000/svg"
 width="101.000000pt" height="116.000000pt" viewBox="0 0 101.000000 116.000000"
 preserveAspectRatio="xMidYMid meet">
<g transform="translate(0.000000,116.000000) scale(0.100000,-0.100000)"
fill="#ffffff" stroke="none">
<path d="M491 1018 c-18 -47 -81 -199 -176 -423 -178 -421 -204 -485 -200
-485 8 0 331 154 350 167 11 7 29 13 40 13 12 0 103 -40 204 -90 100 -49 185
-90 187 -90 10 0 -8 44 -171 425 -89 209 -172 406 -184 438 -27 67 -38 77 -50
45z"/>
</g>
</svg>
