<?xml version="1.0" standalone="no"?>
<!DOCTYPE svg PUBLIC "-//W3C//DTD SVG 20010904//EN"
 "http://www.w3.org/TR/2001/REC-SVG-20010904/DTD/svg10.dtd">
<svg version="1.0" xmlns="http://www.w3.org/2000/svg"
 width="74.000000pt" height="163.000000pt" viewBox="0 0 74.000000 163.000000"
 preserveAspectRatio="xMidYMid meet">
<g transform="translate(0.000000,163.000000) scale(0.100000,-0.100000)"
fill="#ffffff" stroke="none">
<path d="M234 1512 c-7 -4 -13 -67 -17 -172 -3 -91 -8 -212 -12 -270 -6 -104
-6 -105 -43 -143 l-37 -38 -3 -198 c-3 -196 -3 -198 22 -246 24 -44 26 -58 26
-180 0 -111 3 -135 17 -146 12 -11 57 -14 190 -14 161 0 176 1 189 19 10 15
14 53 14 150 0 125 1 131 28 170 26 38 27 43 30 204 2 90 1 180 -3 198 -3 19
-23 54 -45 79 -26 30 -37 51 -33 64 8 33 -5 71 -25 71 -28 0 -42 -21 -42 -62
0 -37 -1 -38 -35 -38 l-35 0 0 50 c0 49 -1 50 -30 50 -29 0 -30 -1 -30 -50 l0
-50 -39 0 -40 0 -5 135 c-4 74 -8 197 -12 273 -5 137 -9 157 -30 144z m314
-694 c16 -16 16 -180 0 -196 -17 -17 -329 -17 -346 0 -16 16 -16 180 0 196 17
17 329 17 346 0z m2 -277 c17 -33 12 -89 -10 -111 -18 -18 -33 -20 -163 -20
-173 0 -187 6 -187 79 0 26 5 52 12 59 8 8 61 12 175 12 150 0 163 -1 173 -19z"/>
<path d="M233 504 c-3 -9 -2 -24 4 -33 9 -14 30 -16 139 -14 70 2 132 7 137
12 5 5 7 17 5 27 -3 17 -16 19 -141 22 -121 2 -138 1 -144 -14z"/>
</g>
</svg>
