<?xml version="1.0" standalone="no"?>
<!DOCTYPE svg PUBLIC "-//W3C//DTD SVG 20010904//EN"
 "http://www.w3.org/TR/2001/REC-SVG-20010904/DTD/svg10.dtd">
<svg version="1.0" xmlns="http://www.w3.org/2000/svg"
 width="138.000000pt" height="138.000000pt" viewBox="0 0 138.000000 138.000000"
 preserveAspectRatio="xMidYMid meet">
<g transform="translate(0.000000,138.000000) scale(0.100000,-0.100000)"
fill="#ffffff" stroke="none">
<path d="M650 808 c0 -11 86 -160 140 -245 16 -24 35 -30 45 -13 7 11 -15 49
-109 193 -47 71 -76 96 -76 65z"/>
<path d="M747 805 c-7 -18 9 -29 43 -29 18 -1 26 -7 28 -24 4 -28 29 -40 45
-22 9 9 2 20 -32 51 -46 41 -75 49 -84 24z m30 -12 c-4 -3 -10 -3 -14 0 -3 4
0 7 7 7 7 0 10 -3 7 -7z m73 -53 c0 -5 -5 -10 -11 -10 -5 0 -7 5 -4 10 3 6 8
10 11 10 2 0 4 -4 4 -10z"/>
<path d="M580 771 c0 -23 150 -273 168 -279 20 -6 14 44 -10 82 -89 140 -142
216 -150 216 -4 0 -8 -8 -8 -19z"/>
<path d="M510 738 c0 -22 153 -289 164 -285 21 7 18 49 -7 85 -13 20 -48 76
-78 124 -49 79 -79 108 -79 76z"/>
<path d="M491 537 c-17 -17 -14 -22 44 -67 44 -34 58 -40 69 -30 23 18 8 43
-21 35 -30 -7 -53 10 -53 40 0 26 -22 39 -39 22z m24 -17 c3 -5 1 -10 -4 -10
-6 0 -11 5 -11 10 0 6 2 10 4 10 3 0 8 -4 11 -10z"/>
</g>
</svg>
