<?xml version="1.0" standalone="no"?>
<!DOCTYPE svg PUBLIC "-//W3C//DTD SVG 20010904//EN"
 "http://www.w3.org/TR/2001/REC-SVG-20010904/DTD/svg10.dtd">
<svg version="1.0" xmlns="http://www.w3.org/2000/svg"
 width="183.000000pt" height="107.000000pt" viewBox="0 0 183.000000 107.000000"
 preserveAspectRatio="xMidYMid meet">
<g transform="translate(0.000000,107.000000) scale(0.100000,-0.100000)"
fill="#ffffff" stroke="none">
<path d="M748 918 l-3 -43 -60 -8 c-33 -5 -114 -11 -180 -13 -66 -2 -130 -6
-142 -9 -13 -3 -34 -23 -48 -45 l-25 -40 -73 0 c-108 0 -111 -3 -98 -129 6
-57 11 -129 11 -161 0 -64 16 -81 54 -57 12 8 33 17 48 20 17 5 30 17 38 39 6
18 30 85 52 148 22 63 49 123 60 133 17 15 43 17 188 17 130 0 169 -3 173 -13
3 -8 -8 -43 -23 -78 -16 -36 -35 -86 -42 -113 -16 -59 -17 -58 134 -121 108
-46 109 -46 208 -43 71 2 100 0 100 -9 0 -6 -20 -59 -45 -119 -25 -59 -45
-113 -45 -119 0 -11 67 -45 89 -45 7 0 51 97 115 253 8 20 22 40 29 43 8 3 17
19 21 35 9 45 74 180 93 195 12 9 52 13 126 14 100 0 109 2 114 20 3 12 14 20
27 21 70 3 71 4 74 32 3 26 1 27 -41 27 -50 0 -57 9 -57 68 0 19 -7 43 -16 53
-9 10 -19 33 -23 51 -4 19 -14 34 -24 36 -14 3 -17 -4 -17 -42 l0 -46 -348 0
c-193 0 -352 4 -357 9 -6 5 -19 11 -30 13 -13 2 -22 13 -25 32 -8 47 -28 43
-32 -6z m570 -74 c20 -6 23 -12 20 -48 l-3 -41 -57 -3 -58 -3 0 45 c0 34 4 46
18 49 27 7 55 7 80 1z m-309 -83 c11 -7 12 -17 5 -43 -10 -33 -10 -33 -71 -33
-34 0 -64 3 -68 7 -9 9 4 68 15 68 5 0 10 -10 12 -22 2 -12 8 -23 15 -25 7 -3
9 3 6 17 -4 13 0 26 8 31 18 11 60 11 78 0z m-750 -103 c-1 -36 -33 -121 -46
-126 -10 -3 -13 16 -13 72 l0 76 30 0 c25 0 30 -4 29 -22z m692 2 c46 0 47 -6
17 -81 -24 -62 -73 -119 -100 -119 -17 0 -78 26 -78 34 0 4 46 136 55 159 6
15 15 18 38 13 16 -3 47 -6 68 -6z"/>
</g>
</svg>
