<?xml version="1.0" standalone="no"?>
<!DOCTYPE svg PUBLIC "-//W3C//DTD SVG 20010904//EN"
 "http://www.w3.org/TR/2001/REC-SVG-20010904/DTD/svg10.dtd">
<svg version="1.0" xmlns="http://www.w3.org/2000/svg"
 width="81.000000pt" height="58.000000pt" viewBox="0 0 81.000000 58.000000"
 preserveAspectRatio="xMidYMid meet">
<g transform="translate(0.000000,58.000000) scale(0.100000,-0.100000)"
fill="#ffffff" stroke="none">
<path d="M388 465 c-3 -3 29 -39 71 -80 l76 -75 -213 0 c-198 0 -213 -1 -210
-17 3 -16 22 -18 206 -21 111 -1 202 -4 202 -6 0 -2 -33 -35 -72 -74 -59 -58
-70 -72 -56 -77 13 -5 40 14 99 69 79 73 118 91 84 39 -12 -17 -14 -28 -7 -35
8 -8 27 2 62 32 78 65 78 68 12 133 -32 32 -61 57 -65 57 -5 0 -5 -21 -1 -47
l7 -48 -81 78 c-72 70 -99 87 -114 72z"/>
</g>
</svg>
