<?xml version="1.0" standalone="no"?>
<!DOCTYPE svg PUBLIC "-//W3C//DTD SVG 20010904//EN"
 "http://www.w3.org/TR/2001/REC-SVG-20010904/DTD/svg10.dtd">
<svg version="1.0" xmlns="http://www.w3.org/2000/svg"
 width="119.000000pt" height="117.000000pt" viewBox="0 0 119.000000 117.000000"
 preserveAspectRatio="xMidYMid meet">
<g transform="translate(0.000000,117.000000) scale(0.100000,-0.100000)"
fill="#ffffff" stroke="none">
<path d="M501 1023 c-6 -21 -11 -44 -11 -51 0 -7 -19 -22 -42 -32 l-43 -19
-44 25 c-24 13 -49 24 -55 24 -17 0 -106 -93 -106 -110 0 -8 12 -31 26 -52 24
-35 25 -40 14 -70 -18 -46 -22 -49 -76 -59 -26 -5 -51 -15 -56 -22 -11 -18
-10 -115 2 -138 7 -12 26 -21 52 -25 79 -13 106 -70 64 -134 -14 -22 -26 -44
-26 -49 0 -14 47 -68 81 -91 l29 -21 46 27 c42 25 48 26 85 14 29 -10 41 -20
45 -39 22 -95 11 -86 101 -89 l81 -3 19 58 c16 53 21 59 59 72 39 14 42 13 80
-12 21 -15 43 -27 49 -27 16 0 105 94 105 110 0 8 -11 32 -24 54 -23 36 -23
40 -9 75 19 45 14 41 64 52 24 6 49 15 56 21 14 12 18 125 5 145 -5 7 -29 17
-56 22 -55 10 -50 6 -69 52 -15 35 -14 38 14 80 16 24 29 46 29 49 0 16 -95
110 -111 110 -11 0 -37 -12 -58 -26 l-39 -26 -45 20 c-41 18 -46 24 -57 71
l-12 51 -79 0 -78 0 -10 -37z m188 -271 c14 -10 39 -35 55 -56 28 -35 31 -44
31 -111 0 -67 -3 -77 -30 -111 -43 -52 -89 -74 -156 -74 -171 0 -253 206 -130
324 59 56 174 70 230 28z"/>
</g>
</svg>
