<?xml version="1.0" standalone="no"?>
<!DOCTYPE svg PUBLIC "-//W3C//DTD SVG 20010904//EN"
 "http://www.w3.org/TR/2001/REC-SVG-20010904/DTD/svg10.dtd">
<svg version="1.0" xmlns="http://www.w3.org/2000/svg"
 width="147.000000pt" height="147.000000pt" viewBox="0 0 147.000000 147.000000"
 preserveAspectRatio="xMidYMid meet">
<g transform="translate(0.000000,147.000000) scale(0.100000,-0.100000)"
fill="#ffffff" stroke="none">
<path d="M845 1268 c-35 -19 -55 -52 -55 -91 0 -54 52 -107 105 -107 52 0 105
53 105 105 0 74 -91 129 -155 93z"/>
<path d="M627 1013 c-38 -25 -84 -60 -103 -78 l-34 -32 0 -120 c0 -123 6 -143
42 -143 13 0 18 -8 18 -27 0 -14 7 -34 16 -44 19 -21 11 -39 -17 -39 -10 0
-29 -10 -41 -22 -12 -13 -80 -50 -150 -84 -151 -71 -198 -109 -198 -159 0 -56
24 -54 183 14 206 89 214 95 254 174 19 37 39 67 44 67 6 0 21 12 35 27 l25
27 79 -39 c44 -22 80 -41 80 -45 0 -3 -9 -64 -22 -136 -21 -126 -21 -133 -4
-158 20 -31 53 -46 101 -46 44 0 57 31 26 64 l-21 22 36 154 c19 84 33 164 30
176 -4 16 -38 43 -107 85 -55 34 -99 65 -97 68 13 31 74 141 78 141 3 -1 14
-15 25 -32 11 -17 25 -33 30 -35 13 -4 216 142 228 163 11 20 -10 44 -38 44
-12 0 -40 -13 -61 -28 -21 -16 -51 -36 -66 -46 l-26 -17 -26 44 c-35 60 -51
71 -122 90 -94 26 -120 22 -197 -30z m23 -137 c0 -8 -61 -136 -65 -136 -2 0
-2 24 2 53 3 34 12 58 25 70 18 15 38 23 38 13z"/>
</g>
</svg>
