<?xml version="1.0" standalone="no"?>
<!DOCTYPE svg PUBLIC "-//W3C//DTD SVG 20010904//EN"
 "http://www.w3.org/TR/2001/REC-SVG-20010904/DTD/svg10.dtd">
<svg version="1.0" xmlns="http://www.w3.org/2000/svg"
 width="93.000000pt" height="94.000000pt" viewBox="0 0 93.000000 94.000000"
 preserveAspectRatio="xMidYMid meet">
<g transform="translate(0.000000,94.000000) scale(0.100000,-0.100000)"
fill="#ffffff" stroke="none">
<path d="M0 470 l0 -470 465 0 465 0 0 470 0 470 -465 0 -465 0 0 -470z m568
344 c20 -14 22 -23 22 -120 l0 -104 96 0 c134 0 134 0 134 -114 0 -119 -1
-120 -132 -124 l-98 -4 0 -103 c0 -129 -1 -130 -122 -130 -115 0 -118 4 -118
137 0 54 -3 98 -7 98 -5 0 -49 2 -99 3 -121 3 -124 6 -124 118 0 117 2 119
131 119 l99 0 0 104 c0 130 6 136 120 136 52 0 82 -5 98 -16z"/>
</g>
</svg>
